# xmcd CD database file
#
# Track frame offsets:
#	150
#	24279
#	54385
#	81850
#	114190
#	144401
#	166155
#	212506
#	240060
#
# Disc length: 3665 seconds
#
# Revision: 0
# Processed by: cddbd v1.5.2PL0 Copyright (c) Steve Scherf et al.
# Submitted via: CDex 1.51
#
DISCID=5d0e4f09
DTITLE=Terry Evans - Live at Harvelle's
DYEAR=2006
DGENRE=Blues
TTITLE0=Standing at the Crossroads
TTITLE1=Natcha bone lover
TTITLE2=Honey boy
TTITLE3=The thrill is gone
TTITLE4=I'm a hog for you
TTITLE5=Rooftop Tomcat
TTITLE6=Ain't no sunshine
TTITLE7=Credit Card Blues
TTITLE8=Let me go back to the country
EXTD=YEAR: 2006
EXTT0=
EXTT1=
EXTT2=
EXTT3=
EXTT4=
EXTT5=
EXTT6=
EXTT7=
EXTT8=
PLAYORDER=
